<?xml version="1.0" encoding="UTF-8"?>
<svg xmlns="http://www.w3.org/2000/svg" xmlns:xlink="http://www.w3.org/1999/xlink" width="100px" height="55px" viewBox="0 0 100 55" version="1.1">
<g>
<path style="fill-rule:evenodd;fill:rgb(100%,100%,100%);fill-opacity:1;stroke-width:1;stroke-linecap:round;stroke-linejoin:round;stroke:rgb(0%,0%,0%);stroke-opacity:1;stroke-miterlimit:4;" d="M 49.995625 5.995028 L 95.005469 5.995028 L 95.005469 38.503196 L 49.995625 38.503196 Z M 117.499375 5.995028 L 162.498203 5.995028 L 162.498203 38.503196 L 117.499375 38.503196 Z M 182.502578 5.995028 L 227.501406 5.995028 L 227.501406 38.503196 L 182.502578 38.503196 Z M 4.996797 96.00071 L 4.996797 50.997869 L 37.503906 50.997869 L 37.503906 96.00071 Z M 49.995625 116.003196 L 95.005469 116.003196 L 95.005469 148.500355 L 49.995625 148.500355 Z M 117.499375 116.003196 L 162.498203 116.003196 L 162.498203 148.500355 L 117.499375 148.500355 Z M 182.502578 116.003196 L 227.501406 116.003196 L 227.501406 148.500355 L 182.502578 148.500355 Z M 245.005234 96.00071 L 245.005234 50.997869 L 277.501328 50.997869 L 277.501328 96.00071 Z M 245.005234 96.00071 " transform="matrix(0.35461,0,0,0.354839,0.177305,0.177419)"/>
<path style="fill-rule:evenodd;fill:rgb(100%,100%,100%);fill-opacity:1;stroke-width:1;stroke-linecap:round;stroke-linejoin:round;stroke:rgb(0%,0%,0%);stroke-opacity:1;stroke-miterlimit:4;" d="M 32.502812 25.997514 L 247.494766 25.997514 L 247.494766 125.998935 L 32.502812 125.998935 Z M 32.502812 25.997514 " transform="matrix(0.35461,0,0,0.354839,0.177305,0.177419)"/>
<path style="fill-rule:evenodd;fill:rgb(100%,100%,100%);fill-opacity:1;stroke-width:1;stroke-linecap:round;stroke-linejoin:round;stroke:rgb(0%,0%,0%);stroke-opacity:1;stroke-miterlimit:4;" d="M 53.002891 -0.00461648 L 91.998203 -0.00461648 C 93.661562 -0.00461648 95.005469 1.338423 95.005469 3.00071 L 95.005469 6.996804 C 95.005469 8.659091 93.661562 10.002131 91.998203 10.002131 L 53.002891 10.002131 C 51.339531 10.002131 49.995625 8.659091 49.995625 6.996804 L 49.995625 3.00071 C 49.995625 1.338423 51.339531 -0.00461648 53.002891 -0.00461648 Z M 53.002891 -0.00461648 " transform="matrix(0.35461,0,0,0.354839,0.177305,0.177419)"/>
<path style="fill-rule:evenodd;fill:rgb(100%,100%,100%);fill-opacity:1;stroke-width:1;stroke-linecap:round;stroke-linejoin:round;stroke:rgb(0%,0%,0%);stroke-opacity:1;stroke-miterlimit:4;" d="M 120.495625 -0.00461648 L 159.501953 -0.00461648 C 161.154297 -0.00461648 162.498203 1.338423 162.498203 3.00071 L 162.498203 6.996804 C 162.498203 8.659091 161.154297 10.002131 159.501953 10.002131 L 120.495625 10.002131 C 118.843281 10.002131 117.499375 8.659091 117.499375 6.996804 L 117.499375 3.00071 C 117.499375 1.338423 118.843281 -0.00461648 120.495625 -0.00461648 Z M 120.495625 -0.00461648 " transform="matrix(0.35461,0,0,0.354839,0.177305,0.177419)"/>
<path style="fill-rule:evenodd;fill:rgb(100%,100%,100%);fill-opacity:1;stroke-width:1;stroke-linecap:round;stroke-linejoin:round;stroke:rgb(0%,0%,0%);stroke-opacity:1;stroke-miterlimit:4;" d="M 185.498828 -0.00461648 L 224.505156 -0.00461648 C 226.1575 -0.00461648 227.501406 1.338423 227.501406 3.00071 L 227.501406 6.996804 C 227.501406 8.659091 226.1575 10.002131 224.505156 10.002131 L 185.498828 10.002131 C 183.846484 10.002131 182.502578 8.659091 182.502578 6.996804 L 182.502578 3.00071 C 182.502578 1.338423 183.846484 -0.00461648 185.498828 -0.00461648 Z M 185.498828 -0.00461648 " transform="matrix(0.35461,0,0,0.354839,0.177305,0.177419)"/>
<path style="fill-rule:evenodd;fill:rgb(100%,100%,100%);fill-opacity:1;stroke-width:1;stroke-linecap:round;stroke-linejoin:round;stroke:rgb(0%,0%,0%);stroke-opacity:1;stroke-miterlimit:4;" d="M 185.498828 143.502486 L 224.505156 143.502486 C 226.1575 143.502486 227.501406 144.845526 227.501406 146.496804 L 227.501406 150.503906 C 227.501406 152.155185 226.1575 153.498224 224.505156 153.498224 L 185.498828 153.498224 C 183.846484 153.498224 182.502578 152.155185 182.502578 150.503906 L 182.502578 146.496804 C 182.502578 144.845526 183.846484 143.502486 185.498828 143.502486 Z M 185.498828 143.502486 " transform="matrix(0.35461,0,0,0.354839,0.177305,0.177419)"/>
<path style="fill-rule:evenodd;fill:rgb(100%,100%,100%);fill-opacity:1;stroke-width:1;stroke-linecap:round;stroke-linejoin:round;stroke:rgb(0%,0%,0%);stroke-opacity:1;stroke-miterlimit:4;" d="M 120.495625 143.502486 L 159.501953 143.502486 C 161.154297 143.502486 162.498203 144.845526 162.498203 146.496804 L 162.498203 150.503906 C 162.498203 152.155185 161.154297 153.498224 159.501953 153.498224 L 120.495625 153.498224 C 118.843281 153.498224 117.499375 152.155185 117.499375 150.503906 L 117.499375 146.496804 C 117.499375 144.845526 118.843281 143.502486 120.495625 143.502486 Z M 120.495625 143.502486 " transform="matrix(0.35461,0,0,0.354839,0.177305,0.177419)"/>
<path style="fill-rule:evenodd;fill:rgb(100%,100%,100%);fill-opacity:1;stroke-width:1;stroke-linecap:round;stroke-linejoin:round;stroke:rgb(0%,0%,0%);stroke-opacity:1;stroke-miterlimit:4;" d="M 53.002891 143.502486 L 91.998203 143.502486 C 93.661562 143.502486 95.005469 144.845526 95.005469 146.496804 L 95.005469 150.503906 C 95.005469 152.155185 93.661562 153.498224 91.998203 153.498224 L 53.002891 153.498224 C 51.339531 153.498224 49.995625 152.155185 49.995625 150.503906 L 49.995625 146.496804 C 49.995625 144.845526 51.339531 143.502486 53.002891 143.502486 Z M 53.002891 143.502486 " transform="matrix(0.35461,0,0,0.354839,0.177305,0.177419)"/>
<path style="fill-rule:evenodd;fill:rgb(100%,100%,100%);fill-opacity:1;stroke-width:1;stroke-linecap:round;stroke-linejoin:round;stroke:rgb(0%,0%,0%);stroke-opacity:1;stroke-miterlimit:4;" d="M 3.003196 0.00242188 L 41.995384 0.00242188 C 43.65767 0.00242188 45.00071 1.346328 45.00071 2.998672 L 45.00071 6.997344 C 45.00071 8.660703 43.65767 10.004609 41.995384 10.004609 L 3.003196 10.004609 C 1.340909 10.004609 -0.00213068 8.660703 -0.00213068 6.997344 L -0.00213068 2.998672 C -0.00213068 1.346328 1.340909 0.00242188 3.003196 0.00242188 Z M 3.003196 0.00242188 " transform="matrix(0,0.354839,-0.35461,0,99.64539,18.274194)"/>
<path style="fill-rule:evenodd;fill:rgb(100%,100%,100%);fill-opacity:1;stroke-width:1;stroke-linecap:round;stroke-linejoin:round;stroke:rgb(0%,0%,0%);stroke-opacity:1;stroke-miterlimit:4;" d="M 3.003196 0.00210937 L 41.995384 0.00210937 C 43.65767 0.00210937 45.00071 1.346016 45.00071 2.998359 L 45.00071 6.997031 C 45.00071 8.660391 43.65767 10.004297 41.995384 10.004297 L 3.003196 10.004297 C 1.340909 10.004297 -0.00213068 8.660391 -0.00213068 6.997031 L -0.00213068 2.998359 C -0.00213068 1.346016 1.340909 0.00210937 3.003196 0.00210937 Z M 3.003196 0.00210937 " transform="matrix(0,0.354839,-0.35461,0,3.723404,18.274194)"/>
</g>
</svg>
